<svg width="146" height="67" viewBox="0 0 146 67" fill="none" xmlns="http://www.w3.org/2000/svg">
<path d="M79.1647 25.3603C80.8469 25.3603 82.529 25.3603 84.2112 25.3603C85.0609 25.3603 85.4598 24.9942 85.7546 24.1925C86.1708 23.0247 86.6737 21.8917 87.1419 20.7414C88.7721 16.7151 90.4195 12.6888 92.0496 8.64513C92.4138 7.73878 92.9514 7.02416 93.9226 6.76271C94.2 6.69299 94.4948 6.65814 94.7896 6.65814C108.455 6.65814 122.12 6.65814 135.785 6.65814C135.89 6.65814 136.028 6.60585 136.08 6.69299C136.15 6.815 135.994 6.88472 135.924 6.97187C135.421 7.59934 134.918 8.20938 134.415 8.83686C134.311 8.97629 134.173 9.04601 133.999 9.08087C130.791 9.67348 127.583 10.2487 124.375 10.8413C120.317 11.5908 116.241 12.3402 112.183 13.0897C107.692 13.9089 103.2 14.7281 98.7089 15.5647C97.547 15.7739 96.3851 15.9831 95.2232 16.2271C94.1307 16.4537 93.489 17.1509 93.1248 18.1618C91.1826 23.565 89.2576 28.9508 87.3154 34.354C85.9107 38.2932 84.4887 42.2323 83.084 46.1714C82.9973 46.4329 82.8759 46.52 82.5984 46.52C82.0435 46.5026 81.4885 46.5026 80.9509 46.52C80.7428 46.52 80.6561 46.4851 80.6388 46.2586C80.4827 43.7138 80.3093 41.1865 80.1359 38.6417C79.9625 36.1667 79.7891 33.6917 79.633 31.2167C79.6156 30.8332 79.4249 30.6241 79.078 30.4846C77.3785 29.8397 75.6791 29.1774 73.9796 28.5499C73.7194 28.4453 73.6327 28.3233 73.6501 28.0619C73.6674 27.2775 73.6674 26.4758 73.6501 25.674C73.6501 25.43 73.7194 25.3777 73.9449 25.3777C75.6964 25.3603 77.4306 25.3603 79.1647 25.3603Z" fill="#FF3C19"/>
<path d="M30.9895 6.65814C37.7701 6.65814 44.5507 6.65814 51.3313 6.65814C52.788 6.65814 53.6031 7.19846 54.158 8.55798C56.2737 13.752 58.372 18.9287 60.4704 24.1228C60.5744 24.4016 60.6611 24.6805 60.8692 24.8897C61.1987 25.2383 61.5976 25.3428 62.0485 25.3428C65.4301 25.3428 68.8118 25.3428 72.1934 25.3428C72.5923 25.3428 72.5923 25.3428 72.5923 25.7437C72.5923 26.5106 72.5749 27.2601 72.5923 28.027C72.5923 28.3059 72.5055 28.4105 72.2454 28.5151C70.5806 29.1425 68.9158 29.8049 67.251 30.4323C66.8521 30.5892 66.6614 30.7984 66.644 31.2341C66.5226 33.2037 66.3839 35.1907 66.2452 37.1602C66.0891 39.4958 65.9157 41.814 65.7596 44.1495C65.7076 44.8467 65.6556 45.5439 65.6209 46.2411C65.6035 46.4328 65.5515 46.4851 65.3608 46.4851C64.7885 46.4677 64.2162 46.4677 63.6439 46.4851C63.3838 46.5026 63.2624 46.398 63.193 46.154C62.0311 42.912 60.8692 39.6701 59.7073 36.4282C57.5223 30.3103 55.3199 24.2099 53.1348 18.0921C52.7013 16.9068 51.8516 16.3142 50.655 16.1051C45.8166 15.2336 40.9956 14.3447 36.1573 13.4557C31.0415 12.5494 25.9257 11.6082 20.8099 10.667C17.9658 10.1441 15.1391 9.62119 12.2951 9.0983C12.1043 9.06344 11.9482 8.97629 11.8268 8.81942C11.3239 8.20938 10.821 7.59934 10.3355 6.97187C10.2661 6.88472 10.1274 6.815 10.1794 6.69299C10.2314 6.60585 10.3701 6.65814 10.4742 6.65814C13.0234 6.65814 15.5727 6.65814 18.1219 6.65814C22.4053 6.65814 26.706 6.65814 30.9895 6.65814Z" fill="#FF3C19"/>
</svg>
