<svg width="308" height="24" viewBox="0 0 308 24" fill="none" xmlns="http://www.w3.org/2000/svg">
<path d="M308 23.8038V0.326976H303.746V19.03L297.397 0.326976H290.918V23.8692H295.172V4.31608L301.782 23.8692H308V23.8038ZM249.816 17.3951L251.714 23.8692H256.165L249.555 0.326976H243.272L237.774 23.8692H241.963L243.533 17.3951H249.816ZM249.358 15.6948H243.926L246.413 3.07356L249.358 15.6948ZM201.188 23.8038L201.254 12.2943H208.322V10.6594H201.254V1.89645H208.649V0.261577H196.672V23.8038H201.188ZM160.349 3.92371C160.349 1.3079 157.927 0.0653991 152.822 0.0653991C147.782 0.0653991 145.361 1.3079 145.361 3.92371V20.2071C145.361 22.8229 147.782 24 152.822 24C157.927 24 160.349 22.8229 160.349 20.1417V3.92371ZM149.811 3.72751C149.811 2.22342 150.597 1.70028 152.756 1.70028C154.916 1.70028 155.767 2.22342 155.767 3.72751V20.3379C155.767 21.842 154.916 22.3651 152.756 22.3651C150.597 22.3651 149.811 21.7766 149.811 20.2725V3.72751ZM108.186 23.8038L108.252 1.89645H113.553V0.261577H98.3689V1.89645H103.67V23.8038H108.186ZM65.4484 17.3951H60.9324V20.4033C60.9324 21.9074 60.2125 22.4305 58.3145 22.4305C56.4165 22.4305 55.762 21.842 55.762 20.3379V3.72751C55.762 2.22342 56.4819 1.70028 58.3145 1.70028C60.278 1.70028 60.9324 2.22342 60.9324 3.72751V6.21254H65.4484V3.85831C65.4484 1.2425 63.2231 0 58.3145 0C53.4713 0 51.2461 1.2425 51.2461 3.85831V20.1417C51.2461 22.7575 53.4713 23.9346 58.3145 23.9346C63.2231 23.9346 65.4484 22.7575 65.4484 20.0763V17.3951ZM14.9877 3.92371C14.9877 1.3079 12.5661 0.0653991 7.46111 0.0653991C2.42159 0.0653991 0 1.3079 0 3.92371V20.2071C0 22.8229 2.42159 24 7.46111 24C12.5661 24 14.9877 22.8229 14.9877 20.1417V3.92371ZM4.45049 3.72751C4.45049 2.22342 5.23587 1.70028 7.39567 1.70028C9.55546 1.70028 10.4063 2.22342 10.4063 3.72751V20.3379C10.4063 21.842 9.55546 22.3651 7.39567 22.3651C5.23587 22.3651 4.45049 21.7766 4.45049 20.2725V3.72751Z" fill="#FF3C19"/>
</svg>
