<svg width="245" height="100" viewBox="0 0 245 100" fill="none" xmlns="http://www.w3.org/2000/svg">
<path d="M134.116 47.6431C137.353 47.6431 140.591 47.6431 143.829 47.6431C145.465 47.6431 146.232 46.936 146.8 45.3872C147.601 43.1313 148.569 40.9428 149.47 38.7205C152.608 30.9428 155.779 23.165 158.916 15.3535C159.617 13.6027 160.652 12.2222 162.521 11.7172C163.055 11.5825 163.623 11.5152 164.19 11.5152C190.492 11.5152 216.795 11.5152 243.097 11.5152C243.298 11.5152 243.565 11.4142 243.665 11.5825C243.798 11.8182 243.498 11.9529 243.364 12.1212C242.396 13.3333 241.428 14.5118 240.46 15.7239C240.26 15.9933 239.993 16.128 239.659 16.1953C233.484 17.3401 227.309 18.4512 221.134 19.596C213.323 21.0438 205.479 22.4916 197.669 23.9394C189.024 25.5219 180.379 27.1044 171.734 28.7205C169.497 29.1246 167.261 29.5286 165.024 30C162.922 30.4377 161.687 31.7845 160.986 33.7374C157.247 44.1751 153.542 54.5791 149.804 65.0168C147.1 72.6263 144.363 80.2357 141.659 87.8451C141.492 88.3502 141.259 88.5185 140.725 88.5185C139.657 88.4849 138.588 88.4849 137.554 88.5185C137.153 88.5185 136.986 88.4512 136.953 88.0135C136.653 83.0976 136.319 78.2155 135.985 73.2997C135.651 68.5185 135.317 63.7374 135.017 58.9562C134.984 58.2155 134.616 57.8115 133.949 57.5421C130.678 56.2963 127.407 55.0168 124.135 53.8047C123.635 53.6027 123.468 53.367 123.501 52.862C123.535 51.3468 123.535 49.798 123.501 48.2492C123.501 47.7778 123.635 47.6768 124.069 47.6768C127.44 47.6431 130.778 47.6431 134.116 47.6431Z" fill="white"/>
<path d="M41.3896 11.5152C54.4407 11.5152 67.4918 11.5152 80.5428 11.5152C83.3467 11.5152 84.9155 12.5589 85.9836 15.1852C90.0558 25.2189 94.0946 35.2189 98.1334 45.2525C98.3337 45.7913 98.5006 46.33 98.9012 46.734C99.5354 47.4074 100.303 47.6094 101.171 47.6094C107.68 47.6094 114.189 47.6094 120.697 47.6094C121.465 47.6094 121.465 47.6094 121.465 48.3838C121.465 49.8653 121.432 51.3131 121.465 52.7946C121.465 53.3333 121.298 53.5354 120.798 53.7374C117.593 54.9495 114.389 56.229 111.185 57.4411C110.417 57.7441 110.05 58.1482 110.016 58.9899C109.783 62.7946 109.516 66.633 109.249 70.4377C108.948 74.9495 108.614 79.4276 108.314 83.9394C108.214 85.2862 108.114 86.633 108.047 87.9798C108.014 88.3502 107.913 88.4512 107.546 88.4512C106.445 88.4175 105.343 88.4175 104.242 88.4512C103.741 88.4849 103.507 88.2828 103.374 87.8115C101.138 81.5488 98.9012 75.2862 96.6648 69.0236C92.4591 57.2054 88.22 45.4209 84.0142 33.6027C83.1798 31.3131 81.5442 30.1684 79.2411 29.7643C69.9284 28.0808 60.6491 26.3636 51.3364 24.6465C41.4897 22.8956 31.643 21.0774 21.7963 19.2593C16.3221 18.2492 10.8814 17.2391 5.40729 16.229C5.04012 16.1616 4.73971 15.9933 4.50606 15.6902C3.53808 14.5118 2.5701 13.3333 1.63549 12.1212C1.50198 11.9529 1.23495 11.8182 1.33508 11.5825C1.43522 11.4142 1.70225 11.5152 1.90252 11.5152C6.8092 11.5152 11.7159 11.5152 16.6225 11.5152C24.8671 11.5152 33.145 11.5152 41.3896 11.5152Z" fill="white"/>
</svg>
