<svg width="49" height="16" viewBox="0 0 49 16" fill="none" xmlns="http://www.w3.org/2000/svg">
<path d="M26.8224 7.46279C27.4561 7.46279 28.0898 7.46279 28.7234 7.46279C29.0436 7.46279 29.1938 7.32621 29.3049 7.02705C29.4617 6.5913 29.6511 6.16856 29.8275 5.73932C30.4416 4.23698 31.0622 2.73464 31.6763 1.2258C31.8135 0.887607 32.016 0.620958 32.3818 0.523403C32.4864 0.497389 32.5974 0.484382 32.7085 0.484382C37.8564 0.484382 43.0042 0.484382 48.1521 0.484382C48.1913 0.484382 48.2436 0.464871 48.2632 0.497389C48.2893 0.542914 48.2305 0.568929 48.2044 0.601447C48.0149 0.835578 47.8255 1.06321 47.636 1.29734C47.5968 1.34937 47.5446 1.37538 47.4792 1.38839C46.2707 1.60951 45.0621 1.82413 43.8535 2.04526C42.3248 2.32491 40.7896 2.60457 39.2609 2.88423C37.5689 3.1899 35.8769 3.49557 34.1849 3.80774C33.7472 3.88579 33.3095 3.96383 32.8718 4.05488C32.4602 4.13943 32.2185 4.39957 32.0813 4.77678C31.3496 6.79291 30.6245 8.80254 29.8928 10.8187C29.3637 12.2885 28.828 13.7583 28.2988 15.2281C28.2661 15.3257 28.2204 15.3582 28.1159 15.3582C27.9068 15.3517 27.6978 15.3517 27.4953 15.3582C27.4169 15.3582 27.3842 15.3452 27.3777 15.2607C27.3189 14.3111 27.2536 13.3681 27.1882 12.4186C27.1229 11.495 27.0576 10.5715 26.9988 9.64801C26.9922 9.50493 26.9204 9.42689 26.7897 9.37486C26.1495 9.13422 25.5093 8.88709 24.8691 8.65296C24.7711 8.61393 24.7384 8.56841 24.7449 8.47085C24.7515 8.17819 24.7515 7.87902 24.7449 7.57986C24.7449 7.4888 24.7711 7.46929 24.856 7.46929C25.5158 7.46279 26.1691 7.46279 26.8224 7.46279Z" fill="#FF3C19"/>
<path d="M8.67428 0.484382C11.2286 0.484382 13.783 0.484382 16.3373 0.484382C16.8861 0.484382 17.1931 0.685994 17.4022 1.19328C18.1992 3.13136 18.9896 5.06294 19.7801 7.00103C19.8193 7.10509 19.852 7.20915 19.9304 7.28719C20.0545 7.41726 20.2047 7.45628 20.3746 7.45628C21.6485 7.45628 22.9224 7.45628 24.1963 7.45628C24.3466 7.45628 24.3466 7.45628 24.3466 7.60587C24.3466 7.89203 24.34 8.17169 24.3466 8.45785C24.3466 8.5619 24.3139 8.60093 24.2159 8.63995C23.5888 8.87408 22.9616 9.12122 22.3344 9.35535C22.1842 9.41388 22.1123 9.49192 22.1058 9.65452C22.0601 10.3894 22.0078 11.1308 21.9555 11.8658C21.8967 12.7372 21.8314 13.6022 21.7726 14.4737C21.753 14.7339 21.7334 14.994 21.7204 15.2542C21.7138 15.3257 21.6942 15.3452 21.6224 15.3452C21.4068 15.3387 21.1912 15.3387 20.9756 15.3452C20.8776 15.3517 20.8319 15.3127 20.8058 15.2216C20.3681 14.012 19.9304 12.8023 19.4927 11.5926C18.6695 9.30982 17.8399 7.03355 17.0167 4.75077C16.8534 4.30852 16.5333 4.0874 16.0825 4.00936C14.2599 3.68417 12.4437 3.35249 10.6211 3.0208C8.69388 2.68261 6.76669 2.33142 4.8395 1.98022C3.76811 1.78511 2.70326 1.59 1.63187 1.39489C1.56001 1.38188 1.50122 1.34937 1.45549 1.29083C1.26603 1.06321 1.07658 0.835578 0.893662 0.601447C0.867531 0.568929 0.815268 0.542914 0.834867 0.497389C0.854465 0.464871 0.906728 0.484382 0.945925 0.484382C1.90625 0.484382 2.86658 0.484382 3.82691 0.484382C5.44052 0.484382 7.06066 0.484382 8.67428 0.484382Z" fill="#FF3C19"/>
</svg>
