<svg width="42" height="41" viewBox="0 0 42 41" fill="none" xmlns="http://www.w3.org/2000/svg">
<path d="M33.6001 5.4668H8.4001C6.8531 5.4668 5.6001 6.68996 5.6001 8.20013V32.8001C5.6001 34.3103 6.8531 35.5335 8.4001 35.5335H22.4001V23.2335H18.2001V19.1335H22.4001V16.9318C22.4001 12.7634 24.4805 10.9335 28.0295 10.9335C29.7291 10.9335 30.6279 11.0565 31.0535 11.1125V15.0335H28.6329C27.1265 15.0335 26.6001 15.8097 26.6001 17.3814V19.1335H31.0157L30.4165 23.2335H26.6001V35.5335H33.6001C35.1471 35.5335 36.4001 34.3103 36.4001 32.8001V8.20013C36.4001 6.68996 35.1457 5.4668 33.6001 5.4668Z" fill="white"/>
</svg>
