<svg width="207" height="64" viewBox="0 0 207 64" fill="none" xmlns="http://www.w3.org/2000/svg">
<path d="M113.415 30.0404C116.18 30.0404 118.945 30.0404 121.71 30.0404C123.107 30.0404 123.763 29.4529 124.247 28.1661C124.931 26.2919 125.758 24.4737 126.528 22.6274C129.207 16.1656 131.915 9.70374 134.595 3.21393C135.194 1.75931 136.077 0.612408 137.674 0.192807C138.13 0.0809141 138.614 0.0249678 139.099 0.0249678C161.561 0.0249678 184.024 0.0249678 206.487 0.0249678C206.658 0.0249678 206.886 -0.058952 206.971 0.0809147C207.085 0.276728 206.829 0.388621 206.715 0.528488C205.888 1.53553 205.061 2.5146 204.235 3.52164C204.064 3.74542 203.836 3.85731 203.551 3.91326C198.277 4.86436 193.003 5.78748 187.73 6.73857C181.06 7.94142 174.361 9.14428 167.69 10.3471C160.307 11.6619 152.924 12.9766 145.541 14.3193C143.631 14.655 141.721 14.9907 139.811 15.3823C138.016 15.746 136.961 16.8649 136.362 18.4874C133.17 27.1591 130.005 35.8029 126.813 44.4746C124.504 50.7966 122.166 57.1186 119.857 63.4405C119.715 63.8601 119.515 64 119.059 64C118.147 63.972 117.235 63.972 116.351 64C116.009 64 115.867 63.944 115.838 63.5804C115.581 59.4963 115.296 55.4402 115.011 51.356C114.726 47.3838 114.441 43.4116 114.185 39.4394C114.156 38.824 113.843 38.4883 113.273 38.2645C110.479 37.2295 107.685 36.1665 104.892 35.1595C104.464 34.9916 104.322 34.7958 104.35 34.3762C104.379 33.1174 104.379 31.8307 104.35 30.5439C104.35 30.1523 104.464 30.0683 104.835 30.0683C107.714 30.0404 110.564 30.0404 113.415 30.0404Z" fill="#FF3C19"/>
<path d="M34.2258 0.0249678C45.3716 0.0249678 56.5174 0.0249678 67.6632 0.0249678C70.0577 0.0249678 71.3975 0.892141 72.3097 3.07406C75.7874 11.4101 79.2366 19.7182 82.6858 28.0543C82.8568 28.5018 82.9994 28.9494 83.3414 29.2851C83.8831 29.8446 84.5387 30.0124 85.2799 30.0124C90.8385 30.0124 96.3971 30.0124 101.956 30.0124C102.611 30.0124 102.611 30.0124 102.611 30.6558C102.611 31.8866 102.583 33.0895 102.611 34.3203C102.611 34.7679 102.469 34.9357 102.041 35.1035C99.3047 36.1106 96.5682 37.1736 93.8316 38.1806C93.176 38.4324 92.8624 38.768 92.8339 39.4674C92.6344 42.6284 92.4063 45.8173 92.1783 48.9783C91.9217 52.7267 91.6367 56.4472 91.3801 60.1956C91.2946 61.3146 91.2091 62.4335 91.1521 63.5524C91.1236 63.8601 91.038 63.9441 90.7245 63.9441C89.7838 63.9161 88.8431 63.9161 87.9024 63.9441C87.4748 63.972 87.2753 63.8042 87.1612 63.4126C85.2514 58.2095 83.3415 53.0065 81.4316 47.8034C77.8398 37.9848 74.2196 28.1941 70.6278 18.3755C69.9152 16.4733 68.5184 15.5222 66.5515 15.1865C58.5983 13.7879 50.6737 12.3612 42.7206 10.9346C34.3113 9.47996 25.9021 7.9694 17.4929 6.45884C12.8179 5.61964 8.17145 4.78044 3.49648 3.94124C3.18292 3.88529 2.92636 3.74542 2.72682 3.49366C1.90015 2.51459 1.07348 1.53553 0.275317 0.528488C0.161293 0.388621 -0.0667538 0.276728 0.0187639 0.0809147C0.104282 -0.058952 0.332328 0.0249678 0.503364 0.0249678C4.69373 0.0249678 8.88409 0.0249678 13.0745 0.0249678C20.1154 0.0249678 27.1849 0.0249678 34.2258 0.0249678Z" fill="#FF3C19"/>
</svg>
