<svg width="31" height="31" viewBox="0 0 31 31" fill="none" xmlns="http://www.w3.org/2000/svg">
<g clip-path="url(#clip0_604_538)">
<path d="M0 2.18213C0 0.975975 1.00939 0 2.25029 0H28.2074C29.4529 0 30.4577 0.975975 30.4577 2.18213V28.2941C30.4577 29.5002 29.4483 30.4762 28.2074 30.4762H2.25029C1.00939 30.4762 0 29.5002 0 28.2941V2.18213Z" fill="white"/>
<path d="M9.23259 25.513V11.7481H4.63013V25.5084H9.23259V25.513ZM6.93599 9.86983C8.53805 9.86983 9.53818 8.81099 9.53818 7.49435C9.50577 6.14548 8.53805 5.11426 6.9684 5.11426C5.39412 5.11426 4.36621 6.14087 4.36621 7.49435C4.36621 8.8156 5.36634 9.86983 6.90821 9.86983H6.93599ZM11.7792 25.513H16.3817V17.8249C16.3817 17.4152 16.4141 17.0009 16.5345 16.7109C16.8678 15.8868 17.6226 15.0397 18.8959 15.0397C20.5581 15.0397 21.2249 16.3011 21.2249 18.1518V25.513H25.8273V17.6224C25.8273 13.3962 23.5585 11.4305 20.5304 11.4305C18.0486 11.4305 16.9604 12.8116 16.3539 13.7507H16.3863V11.7573H11.7838C11.8394 13.0417 11.7792 25.513 11.7792 25.513Z" fill="#1D1D1D"/>
</g>
<defs>
<clipPath id="clip0_604_538">
<rect width="30.4762" height="30.4762" fill="white"/>
</clipPath>
</defs>
</svg>
