<svg width="180" height="82" viewBox="0 0 180 82" fill="none" xmlns="http://www.w3.org/2000/svg">
<path d="M97.6008 31.0379C99.6747 31.0379 101.749 31.0379 103.822 31.0379C104.87 31.0379 105.362 30.5899 105.725 29.6087C106.238 28.1794 106.858 26.7929 107.436 25.385C109.445 20.4573 111.477 15.5296 113.486 10.5806C113.935 9.47132 114.598 8.59671 115.795 8.27673C116.137 8.1914 116.501 8.14874 116.864 8.14874C133.712 8.14874 150.56 8.14874 167.407 8.14874C167.536 8.14874 167.707 8.08474 167.771 8.1914C167.856 8.34073 167.664 8.42605 167.578 8.53271C166.958 9.30066 166.338 10.0473 165.718 10.8152C165.59 10.9859 165.419 11.0712 165.205 11.1139C161.25 11.8392 157.294 12.5431 153.339 13.2684C148.336 14.1857 143.312 15.103 138.309 16.0202C132.771 17.0228 127.234 18.0254 121.696 19.0494C120.264 19.3053 118.831 19.5613 117.399 19.86C116.052 20.1373 115.261 20.9906 114.812 22.2278C112.417 28.8407 110.044 35.4323 107.65 42.0452C105.918 46.8662 104.165 51.6872 102.433 56.5083C102.326 56.8282 102.176 56.9349 101.834 56.9349C101.15 56.9136 100.466 56.9136 99.803 56.9349C99.5464 56.9349 99.4395 56.8922 99.4182 56.6149C99.2257 53.5005 99.0119 50.4073 98.7981 47.2929C98.5843 44.2637 98.3705 41.2346 98.1781 38.2055C98.1567 37.7362 97.9215 37.4802 97.4939 37.3095C95.3987 36.5202 93.3034 35.7096 91.2082 34.9417C90.8875 34.8137 90.7806 34.6644 90.8019 34.3444C90.8233 33.3844 90.8233 32.4032 90.8019 31.4219C90.8019 31.1232 90.8875 31.0593 91.1654 31.0593C93.3248 31.0379 95.4628 31.0379 97.6008 31.0379Z" fill="white"/>
<path d="M38.2065 8.14874C46.5661 8.14874 54.9258 8.14874 63.2854 8.14874C65.0814 8.14874 66.0863 8.81003 66.7704 10.4739C69.3788 16.8308 71.9658 23.1664 74.5528 29.5233C74.6811 29.8647 74.788 30.206 75.0446 30.462C75.4508 30.8886 75.9425 31.0166 76.4984 31.0166C80.6675 31.0166 84.8367 31.0166 89.0058 31.0166C89.4976 31.0166 89.4976 31.0166 89.4976 31.5072C89.4976 32.4458 89.4762 33.3631 89.4976 34.3017C89.4976 34.643 89.3907 34.771 89.07 34.899C87.0175 35.667 84.965 36.4776 82.9125 37.2455C82.4207 37.4375 82.1855 37.6935 82.1642 38.2268C82.0145 40.6373 81.8435 43.0691 81.6724 45.4796C81.48 48.3381 81.2662 51.1753 81.0738 54.0338C81.0096 54.887 80.9455 55.7403 80.9027 56.5936C80.8814 56.8282 80.8172 56.8922 80.582 56.8922C79.8765 56.8709 79.1709 56.8709 78.4654 56.8922C78.1447 56.9136 77.995 56.7856 77.9095 56.4869C76.477 52.5192 75.0446 48.5514 73.6121 44.5837C70.9182 37.0962 68.2029 29.63 65.509 22.1425C64.9745 20.6919 63.9269 19.9666 62.4516 19.7107C56.4865 18.6441 50.5428 17.5561 44.5778 16.4682C38.2706 15.3589 31.9634 14.207 25.6563 13.0551C22.1499 12.4151 18.6649 11.7752 15.1586 11.1352C14.9234 11.0925 14.731 10.9859 14.5813 10.7939C13.9613 10.0473 13.3413 9.30066 12.7426 8.53271C12.6571 8.42605 12.4861 8.34073 12.5502 8.1914C12.6143 8.08474 12.7854 8.14874 12.9137 8.14874C16.0566 8.14874 19.1995 8.14874 22.3423 8.14874C27.6233 8.14874 32.9255 8.14874 38.2065 8.14874Z" fill="white"/>
<path d="M140.703 72.1019V64.4438H139.313V70.5447L137.24 64.4438H135.123V72.1233H136.513V65.745L138.672 72.1233H140.703V72.1019ZM121.696 70.0114L122.316 72.1233H123.77L121.611 64.4438H119.558L117.762 72.1233H119.131L119.644 70.0114H121.696ZM121.546 69.4568H119.772L120.584 65.3397L121.546 69.4568ZM105.811 72.1019L105.832 68.3475H108.141V67.8142H105.832V64.9557H108.248V64.4224H104.335V72.1019H105.811ZM92.4694 65.617C92.4694 64.7637 91.6783 64.3584 90.0107 64.3584C88.3644 64.3584 87.5733 64.7637 87.5733 65.617V70.9287C87.5733 71.7819 88.3644 72.1659 90.0107 72.1659C91.6783 72.1659 92.4694 71.7819 92.4694 70.9073V65.617ZM89.0272 65.553C89.0272 65.0624 89.2838 64.8917 89.9893 64.8917C90.6948 64.8917 90.9728 65.0624 90.9728 65.553V70.9713C90.9728 71.462 90.6948 71.6326 89.9893 71.6326C89.2838 71.6326 89.0272 71.4406 89.0272 70.95V65.553ZM75.4294 72.1019L75.4508 64.9557H77.1826V64.4224H72.2223V64.9557H73.9541V72.1019H75.4294ZM61.4681 70.0114H59.9929V70.9927C59.9929 71.4833 59.7577 71.654 59.1377 71.654C58.5176 71.654 58.3038 71.462 58.3038 70.9713V65.553C58.3038 65.0624 58.539 64.8917 59.1377 64.8917C59.7791 64.8917 59.9929 65.0624 59.9929 65.553V66.3636H61.4681V65.5957C61.4681 64.7424 60.7412 64.3371 59.1377 64.3371C57.5555 64.3371 56.8286 64.7424 56.8286 65.5957V70.9073C56.8286 71.7606 57.5555 72.1446 59.1377 72.1446C60.7412 72.1446 61.4681 71.7606 61.4681 70.886V70.0114ZM44.984 65.617C44.984 64.7637 44.1929 64.3584 42.5252 64.3584C40.879 64.3584 40.0879 64.7637 40.0879 65.617V70.9287C40.0879 71.7819 40.879 72.1659 42.5252 72.1659C44.1929 72.1659 44.984 71.7819 44.984 70.9073V65.617ZM41.5417 65.553C41.5417 65.0624 41.7983 64.8917 42.5039 64.8917C43.2094 64.8917 43.4873 65.0624 43.4873 65.553V70.9713C43.4873 71.462 43.2094 71.6326 42.5039 71.6326C41.7983 71.6326 41.5417 71.4406 41.5417 70.95V65.553Z" fill="white"/>
</svg>
