<svg width="127" height="41" viewBox="0 0 127 41" fill="none" xmlns="http://www.w3.org/2000/svg">
<path d="M69.1647 19.3603C70.8469 19.3603 72.529 19.3603 74.2112 19.3603C75.0609 19.3603 75.4598 18.9942 75.7546 18.1925C76.1708 17.0247 76.6737 15.8917 77.1419 14.7414C78.7721 10.7151 80.4195 6.68883 82.0496 2.64513C82.4138 1.73878 82.9514 1.02416 83.9226 0.762714C84.2 0.692994 84.4948 0.658135 84.7896 0.658135C98.4549 0.658135 112.12 0.658135 125.785 0.658135C125.89 0.658135 126.028 0.605846 126.08 0.692995C126.15 0.815003 125.994 0.884722 125.924 0.971871C125.421 1.59934 124.918 2.20938 124.415 2.83686C124.311 2.97629 124.173 3.04601 123.999 3.08087C120.791 3.67348 117.583 4.24867 114.375 4.84128C110.317 5.59076 106.241 6.34024 102.183 7.08972C97.6919 7.90892 93.2004 8.72812 88.7089 9.56474C87.547 9.7739 86.3851 9.98306 85.2232 10.2271C84.1307 10.4537 83.489 11.1509 83.1248 12.1618C81.1826 17.565 79.2576 22.9508 77.3154 28.354C75.9107 32.2932 74.4887 36.2323 73.084 40.1714C72.9973 40.4329 72.8759 40.52 72.5984 40.52C72.0435 40.5026 71.4885 40.5026 70.9509 40.52C70.7428 40.52 70.6561 40.4851 70.6388 40.2586C70.4827 37.7138 70.3093 35.1865 70.1359 32.6417C69.9625 30.1667 69.7891 27.6917 69.633 25.2167C69.6156 24.8332 69.4249 24.6241 69.078 24.4846C67.3785 23.8397 65.6791 23.1774 63.9796 22.5499C63.7194 22.4453 63.6327 22.3233 63.6501 22.0619C63.6674 21.2775 63.6674 20.4758 63.6501 19.674C63.6501 19.43 63.7194 19.3777 63.9449 19.3777C65.6964 19.3603 67.4306 19.3603 69.1647 19.3603Z" fill="#FF3C19"/>
<path d="M20.9895 0.658135C27.7701 0.658135 34.5507 0.658135 41.3313 0.658135C42.788 0.658135 43.6031 1.19846 44.158 2.55798C46.2737 7.75205 48.372 12.9287 50.4704 18.1228C50.5744 18.4016 50.6611 18.6805 50.8692 18.8897C51.1987 19.2383 51.5976 19.3428 52.0485 19.3428C55.4301 19.3428 58.8118 19.3428 62.1934 19.3428C62.5923 19.3428 62.5923 19.3428 62.5923 19.7437C62.5923 20.5106 62.5749 21.2601 62.5923 22.027C62.5923 22.3059 62.5055 22.4105 62.2454 22.5151C60.5806 23.1425 58.9158 23.8049 57.251 24.4323C56.8521 24.5892 56.6614 24.7984 56.644 25.2341C56.5226 27.2037 56.3839 29.1907 56.2452 31.1602C56.0891 33.4958 55.9157 35.814 55.7596 38.1495C55.7076 38.8467 55.6556 39.5439 55.6209 40.2411C55.6035 40.4328 55.5515 40.4851 55.3608 40.4851C54.7885 40.4677 54.2162 40.4677 53.6439 40.4851C53.3838 40.5026 53.2624 40.398 53.193 40.154C52.0311 36.912 50.8692 33.6701 49.7073 30.4282C47.5223 24.3103 45.3199 18.2099 43.1348 12.0921C42.7013 10.9068 41.8516 10.3142 40.655 10.1051C35.8166 9.23358 30.9956 8.34466 26.1573 7.45574C21.0415 6.54939 15.9257 5.60819 10.8099 4.66698C7.96582 4.14409 5.13912 3.62119 2.29507 3.0983C2.10432 3.06344 1.94824 2.97629 1.82685 2.81942C1.32394 2.20938 0.821027 1.59934 0.335459 0.971871C0.266092 0.884722 0.127359 0.815003 0.179384 0.692995C0.231409 0.605846 0.370143 0.658135 0.474193 0.658135C3.02343 0.658135 5.57266 0.658135 8.12189 0.658135C12.4053 0.658135 16.706 0.658135 20.9895 0.658135Z" fill="#FF3C19"/>
</svg>
