<svg width="33" height="33" viewBox="0 0 33 33" fill="none" xmlns="http://www.w3.org/2000/svg">
<path d="M19.4284 2.2002C17.1216 2.2002 15.4001 4.08465 15.4001 6.22852V9.93887C12.3748 10.0994 9.60803 10.906 7.39932 12.1711C6.54816 11.3537 5.40845 10.9908 4.30342 10.9916C3.10531 10.9925 1.88049 11.4076 1.03564 12.358L1.01631 12.3795L0.996972 12.401C0.186524 13.4138 -0.134385 14.7707 0.0817375 16.1178C0.279112 17.348 0.991606 18.583 2.23018 19.392C2.22206 19.5286 2.2001 19.6623 2.2001 19.8002C2.2001 25.2584 8.6153 29.7002 16.5001 29.7002C24.3849 29.7002 30.8001 25.2584 30.8001 19.8002C30.8001 19.6623 30.7781 19.5286 30.77 19.392C32.0086 18.583 32.7211 17.348 32.9185 16.1178C33.1346 14.7707 32.8137 13.4138 32.0032 12.401L31.9839 12.3795L31.9646 12.358C31.1196 11.4075 29.895 10.9925 28.6968 10.9916C27.5917 10.9908 26.4518 11.3534 25.6009 12.1711C23.3922 10.906 20.6254 10.0994 17.6001 9.93887V6.22852C17.6001 5.15159 18.2218 4.4002 19.4284 4.4002C20.0012 4.4002 20.6989 4.68719 21.7917 5.07051C22.7155 5.39455 23.9177 5.72206 25.4548 5.82031C25.8225 6.90719 26.8432 7.7002 28.0501 7.7002C29.5626 7.7002 30.8001 6.4627 30.8001 4.9502C30.8001 3.4377 29.5626 2.2002 28.0501 2.2002C27.0174 2.2002 26.1224 2.78366 25.6524 3.63105C24.3385 3.55829 23.3732 3.29437 22.52 2.99512C21.5258 2.64639 20.6124 2.2002 19.4284 2.2002ZM4.30342 13.1916C4.73807 13.1913 5.15103 13.3054 5.4915 13.4902C4.27711 14.5039 3.35573 15.6882 2.79951 16.9814C2.50418 16.6169 2.32621 16.2076 2.25596 15.7697C2.13741 15.0309 2.35852 14.2628 2.70928 13.8082C3.04074 13.4514 3.646 13.1921 4.30342 13.1916ZM28.6946 13.1916C29.3522 13.1921 29.9596 13.4515 30.2909 13.8082C30.6417 14.2628 30.8628 15.0309 30.7442 15.7697C30.674 16.2076 30.496 16.6169 30.2007 16.9814C29.6445 15.6882 28.7231 14.5039 27.5087 13.4902C27.8484 13.3056 28.2601 13.1913 28.6946 13.1916ZM11.0001 15.4002C12.2156 15.4002 13.2001 16.3847 13.2001 17.6002C13.2001 18.8157 12.2156 19.8002 11.0001 19.8002C9.7846 19.8002 8.8001 18.8157 8.8001 17.6002C8.8001 16.3847 9.7846 15.4002 11.0001 15.4002ZM22.0001 15.4002C23.2156 15.4002 24.2001 16.3847 24.2001 17.6002C24.2001 18.8157 23.2156 19.8002 22.0001 19.8002C20.7846 19.8002 19.8001 18.8157 19.8001 17.6002C19.8001 16.3847 20.7846 15.4002 22.0001 15.4002ZM22.2622 21.4867C21.5593 23.5404 19.3117 25.3002 16.5001 25.3002C13.6885 25.3002 11.4409 23.5413 10.738 21.635C12.003 22.6613 14.1109 23.3945 16.5001 23.3945C18.8893 23.3945 20.9972 22.6604 22.2622 21.4867Z" fill="white"/>
</svg>
