<svg width="35" height="35" viewBox="0 0 35 35" fill="none" xmlns="http://www.w3.org/2000/svg">
<path d="M24.4999 4.2002C23.9558 4.2002 23.4308 4.25488 22.9249 4.34512C22.5448 4.41074 22.2905 4.77441 22.3561 5.15449C22.4218 5.5373 22.7854 5.7916 23.1655 5.72598C23.6085 5.64668 24.0515 5.6002 24.4999 5.6002C28.7601 5.6002 32.1999 9.04004 32.1999 13.3002C32.1999 14.2217 32.0304 15.1022 31.7296 15.9279C31.6366 16.1658 31.6776 16.4338 31.839 16.6307C32.003 16.8275 32.2573 16.9205 32.5089 16.874C32.7604 16.8275 32.9655 16.6471 33.0448 16.4064C33.3976 15.4385 33.5999 14.3967 33.5999 13.3002C33.5999 8.28262 29.5175 4.2002 24.4999 4.2002ZM24.4999 8.4002C24.2019 8.4002 23.9202 8.43027 23.6522 8.47676C23.2722 8.54512 23.0151 8.90606 23.0835 9.28887C23.1491 9.66895 23.5128 9.92324 23.8929 9.85762C24.0979 9.82207 24.3003 9.8002 24.4999 9.8002C26.4413 9.8002 27.9999 11.3588 27.9999 13.3002C27.9999 13.7186 27.9233 14.1178 27.7839 14.4951C27.6526 14.8588 27.8413 15.2607 28.205 15.392C28.5686 15.5232 28.9706 15.3373 29.1019 14.9736C29.2905 14.4541 29.3999 13.8908 29.3999 13.3002C29.3999 10.6014 27.1987 8.4002 24.4999 8.4002ZM14.7464 8.68457C12.4987 8.68457 9.14912 10.4482 6.16318 13.3795C3.15811 16.3846 1.3999 19.5346 1.3999 22.2471C1.3999 27.5189 8.14014 30.6689 14.8065 30.6689C23.4499 30.6689 29.2358 25.6897 29.2358 21.733C29.2358 19.3158 27.1851 17.9979 25.353 17.4127C24.9155 17.265 24.6202 17.1912 24.839 16.6061C24.9866 16.2533 25.1999 15.5861 25.1999 14.7002C25.1999 13.6939 24.4999 12.8217 23.0999 12.6658C22.9386 12.6494 22.6651 12.6357 22.3206 12.6357C21.1612 12.6357 19.1706 12.7807 17.7378 13.3822C17.7378 13.3822 17.4562 13.4998 17.2292 13.4998C17.0241 13.4998 16.8628 13.4014 17.0022 13.0158C17.5163 11.4053 17.4425 10.0873 16.6358 9.35176C16.1819 8.89785 15.5312 8.68457 14.7464 8.68457ZM14.7464 10.0846C15.039 10.0846 15.4327 10.1283 15.6487 10.3416L15.6706 10.3662L15.6952 10.3881C16.0097 10.6752 16.0042 11.5311 15.6761 12.5701C15.3944 13.3822 15.6569 13.9455 15.8429 14.208C16.1519 14.6482 16.6577 14.8998 17.2292 14.8998C17.694 14.8998 18.1233 14.7385 18.2765 14.6729C19.3976 14.2025 21.1011 14.0357 22.3206 14.0357C22.6323 14.0357 22.8511 14.0467 22.9468 14.0576C23.5128 14.1205 23.7999 14.3365 23.7999 14.7002C23.7999 15.3592 23.6413 15.8432 23.5483 16.0701L23.5374 16.092L23.5292 16.1111C23.3104 16.699 23.3132 17.2322 23.5374 17.6998C23.8683 18.3916 24.519 18.6076 24.869 18.7252L24.9265 18.7443C26.0147 19.0916 27.8358 19.942 27.8358 21.733C27.8358 23.3408 26.4495 25.326 23.9886 26.8545C24.9593 25.7252 25.5089 24.4018 25.5089 22.9772C25.5089 18.7006 20.5487 15.351 14.2187 15.351C7.88857 15.351 2.93115 18.7006 2.93115 22.9772C2.93115 23.1084 2.93389 23.2369 2.94209 23.3654C2.84912 23.0072 2.7999 22.6326 2.7999 22.2471C2.7999 19.9748 4.34482 17.1775 7.14209 14.3803C10.1663 11.4107 13.1413 10.0846 14.7464 10.0846ZM14.2187 16.7537C19.6819 16.7537 24.1089 19.54 24.1089 22.9799C24.1089 26.417 19.6819 29.2033 14.2187 29.2033C8.75811 29.2033 4.33115 26.417 4.33115 22.9799C4.33115 19.54 8.75811 16.7537 14.2187 16.7537ZM13.4858 18.2166C11.3722 18.233 9.31865 19.3897 8.42725 21.1725C7.32803 23.4393 8.35342 25.9303 10.9894 26.7342C13.6253 27.6119 16.7726 26.2939 17.8718 23.8795C18.9683 21.5389 17.5792 19.0506 14.9433 18.3943C14.462 18.2686 13.9726 18.2139 13.4858 18.2166ZM14.5769 21.1752C14.9815 21.1752 15.3097 21.5006 15.3097 21.9053C15.3097 22.31 14.9815 22.6381 14.5769 22.6381C14.1722 22.6381 13.844 22.31 13.844 21.9053C13.844 21.5006 14.1722 21.1752 14.5769 21.1752ZM11.4925 21.9053C11.7222 21.908 11.9519 21.9436 12.1679 22.0174C13.1058 22.3154 13.3929 23.2041 12.8159 23.9451C12.3128 24.6861 11.1616 25.0553 10.2948 24.6861C9.4335 24.317 9.21748 23.4256 9.7206 22.7611C10.0979 22.2033 10.8007 21.8971 11.4925 21.9053Z" fill="white"/>
</svg>
