<svg width="37" height="37" viewBox="0 0 37 37" fill="none" xmlns="http://www.w3.org/2000/svg">
<path d="M16.0335 4.93359C9.23293 4.93359 3.7002 9.63629 3.7002 15.4169C3.7002 17.3767 4.33089 19.2685 5.53092 20.9212L4.81309 26.5362L9.77292 24.4525C11.3663 25.2508 13.1495 25.7093 15.0122 25.84C15.9247 29.4713 19.7145 32.0669 24.0502 32.0669C25.8416 32.0669 27.4693 31.5596 28.8968 30.795L32.4836 32.8089L31.9368 28.1622C32.7499 26.9906 33.3002 25.6358 33.3002 24.1514C33.3002 20.9892 31.1789 18.3621 28.1862 17.0814C28.2939 16.5248 28.3669 15.9686 28.3669 15.4169C28.3669 9.63629 22.8341 4.93359 16.0335 4.93359ZM11.7939 11.3122C12.7535 11.3122 13.5283 12.0871 13.5283 13.0442C13.5283 14.0013 12.7522 14.781 11.7939 14.781C10.8356 14.781 10.0596 14.0037 10.0596 13.0442C10.0596 12.0871 10.8356 11.3122 11.7939 11.3122ZM21.2559 11.3122C22.2142 11.3122 22.9903 12.0871 22.9903 13.0442C22.9903 14.0037 22.2142 14.781 21.2559 14.781C20.2952 14.781 19.5216 14.0037 19.5216 13.0442C19.5216 12.0859 20.2976 11.3122 21.2559 11.3122ZM24.0502 18.705C27.9225 18.705 30.8335 21.261 30.8335 24.1514C30.8335 25.247 30.436 26.2616 29.7134 27.1408L29.381 27.5455L29.4412 28.0658L29.4677 28.2874L28.9209 27.9815L28.2946 28.3862C27.1426 29.1343 25.6701 29.6003 24.0502 29.6003C20.1779 29.6003 17.2669 27.0419 17.2669 24.1514C17.2669 21.2625 20.1782 18.705 24.0502 18.705ZM20.95 21.4969C20.2223 21.4969 19.6372 22.0845 19.6372 22.8097C19.6372 23.5349 20.2236 24.1249 20.95 24.1249C21.674 24.1249 22.264 23.5349 22.2652 22.8097C22.2652 22.0845 21.6752 21.4969 20.95 21.4969ZM27.1745 21.4969C26.4505 21.4969 25.8617 22.0845 25.8617 22.8097C25.8617 23.5349 26.4493 24.1249 27.1745 24.1249C27.9009 24.1249 28.4921 23.5349 28.4921 22.8097C28.4921 22.0845 27.9009 21.4969 27.1745 21.4969Z" fill="white"/>
</svg>
